PathFileType	4	(X/Y/Z)	 s04c0401.trc
DataRate	CameraRate	NumFrames	NumMarkers	Units	OrigDataRate	OrigDataStartFrame	OrigNumFrames
200	200	5	50	mm	200	501	2000
Frame#	Time	racr			lacr			c7			jug			rlel			rdr			llel			ldr			s2			lic			ric			lasi			rasi			rpsi			lpsi			rgt			lgt			rth1			rth2			rth3			rth4			rlfc			rmfc			rsh1			rsh2			rsh3			rsh4			rlmal			rmmal			rcal			rtoe			rmt5			lth1			lth2			lth4			lth3			llfc			lmfc			lsh1			lsh2			lsh3			lsh4			llmal			lmmal			lcal			ltoe			lmt5			SBIKE			LBIKE			RBIKE			
		X1	Y1	Z1	X2	Y2	Z2	X3	Y3	Z3	X4	Y4	Z4	X5	Y5	Z5	X6	Y6	Z6	X7	Y7	Z7	X8	Y8	Z8	X9	Y9	Z9	X10	Y10	Z10	X11	Y11	Z11	X12	Y12	Z12	X13	Y13	Z13	X14	Y14	Z14	X15	Y15	Z15	X16	Y16	Z16	X17	Y17	Z17	X18	Y18	Z18	X19	Y19	Z19	X20	Y20	Z20	X21	Y21	Z21	X22	Y22	Z22	X23	Y23	Z23	X24	Y24	Z24	X25	Y25	Z25	X26	Y26	Z26	X27	Y27	Z27	X28	Y28	Z28	X29	Y29	Z29	X30	Y30	Z30	X31	Y31	Z31	X32	Y32	Z32	X33	Y33	Z33	X34	Y34	Z34	X35	Y35	Z35	X36	Y36	Z36	X37	Y37	Z37	X38	Y38	Z38	X39	Y39	Z39	X40	Y40	Z40	X41	Y41	Z41	X42	Y42	Z42	X43	Y43	Z43	X44	Y44	Z44	X45	Y45	Z45	X46	Y46	Z46	X47	Y47	Z47	X48	Y48	Z48	X49	Y49	Z49	X50	Y50	Z50	
501	2.5050	815.019914	1325.362390	-72.571276	792.234123	1342.056050	-387.155287	817.285669	1427.751901	-234.891539	758.577304	1274.317313	-236.051633	541.218873	1161.604706	50.141030	694.263276	948.186825	-57.686379	576.279026	1184.419494	-533.534242	695.675546	947.478878	-460.485326	213.153069	1334.928690	-270.331110	379.369823	1268.701790	-405.738448	344.467186	1336.279622	-95.880161	395.102531	1213.885470	-351.322918	374.847452	1266.307813	-127.046305	246.250480	1379.490606	-230.899291	258.444508	1363.663817	-307.518745	298.343253	1298.253546	-72.152009	296.565325	1189.346096	-421.824721	397.257426	1162.267496	-62.548091	464.938506	1108.293280	-76.537333	499.310143	1030.608056	-82.847743	488.725286	1129.922798	-97.593714	570.122804	903.110678	-115.048425	541.213772	889.374818	-226.035806	489.786288	806.301557	-89.497635	451.285658	724.163600	-102.634656	378.839438	678.246810	-105.996341	476.199360	707.233707	-127.954404	290.571887	555.087938	-108.659320	307.340241	557.162526	-195.518973	210.441210	546.472959	-143.722291	491.125348	437.052591	-149.514123	423.166330	435.974628	-90.513060	306.522869	1106.099496	-435.086486	337.945032	1025.047622	-434.046617	370.220509	1028.392820	-418.003821	324.824346	937.245024	-443.251642	311.924631	767.076104	-437.228664	325.243507	729.000762	-328.149526	253.500101	647.924791	-464.087355	232.845741	564.891711	-446.967141	173.360495	498.966635	-449.589441	258.102825	553.678197	-418.590862	101.125146	361.930149	-449.342342	100.027385	360.277897	-362.097464	30.423033	390.768797	-406.474078	236.850492	163.224903	-401.804150	163.627800	190.195607	-465.253270	-176.846057	939.046817	-277.404189	-3.095102	86.764583	-484.640646	-15.024755	80.619994	-84.004752	
502	2.5100	815.344442	1323.333566	-71.474675	791.763920	1341.349963	-386.180230	818.295559	1426.271345	-233.477820	758.610499	1273.253307	-235.873219	539.763106	1161.079608	49.476080	694.058361	948.633995	-58.086254	575.679092	1184.344100	-532.644375	695.395841	947.335457	-460.184842	213.683088	1337.109506	-269.379727	379.631824	1270.959442	-404.757599	344.803161	1336.780702	-94.562170	395.572899	1215.747339	-350.773137	375.005261	1266.827673	-125.983073	246.735326	1381.161804	-229.983799	259.048833	1366.056559	-306.074969	298.495275	1298.796621	-71.118696	298.153256	1191.805096	-421.777751	396.262730	1161.636295	-62.086928	463.512565	1107.004477	-76.859162	497.026347	1029.239710	-83.015934	487.454488	1128.625509	-97.286086	567.238774	901.297989	-115.824190	537.986537	887.566230	-226.656635	488.240538	802.899595	-90.037343	451.224131	720.084907	-103.142919	379.654695	672.884222	-106.386718	476.527619	703.565528	-128.440572	293.524563	547.910503	-108.887731	310.401779	549.904900	-195.870422	213.019363	538.544306	-143.295168	495.798966	431.893290	-149.590752	427.735205	430.198103	-90.635114	309.992395	1108.243229	-434.667870	342.012389	1027.533398	-433.131856	374.097064	1031.116517	-416.818085	329.906280	939.649993	-442.869902	316.113897	769.514727	-437.382506	328.271444	731.342874	-328.076732	256.326298	651.233391	-464.262435	234.034886	568.564017	-447.137450	173.452034	503.658271	-450.103191	258.802943	557.153138	-418.490928	98.272060	368.156675	-449.856707	97.246557	366.827305	-362.431266	27.770073	397.881421	-407.144715	231.744853	167.996660	-401.913020	158.832017	195.738434	-465.335614	-176.829792	939.033904	-277.410065	-3.070840	86.694053	-484.649525	-15.002189	80.593319	-84.010458	
503	2.5150	815.482222	1321.357578	-70.511081	791.415435	1340.758945	-385.220358	819.222755	1424.872677	-232.118022	758.769544	1272.331380	-235.902814	538.133340	1160.585159	48.919501	693.791582	948.991402	-58.480893	575.107581	1184.318245	-531.661520	695.216698	947.202089	-459.895227	214.191644	1339.087618	-268.450260	379.807166	1273.365712	-405.065754	345.190509	1337.047068	-93.309481	396.171579	1217.628827	-350.151283	375.081841	1267.120886	-125.125062	247.318504	1382.800227	-228.659551	259.661325	1368.139377	-304.629822	298.639862	1299.126297	-70.170162	299.877348	1194.170769	-421.744027	395.100858	1160.704836	-61.756428	461.874587	1105.412293	-76.748855	494.794326	1027.241607	-83.871708	486.064415	1127.043155	-96.819942	564.134470	899.141819	-116.444840	534.729331	885.243071	-227.305654	486.406295	799.437554	-90.464663	450.910921	715.885706	-103.587982	380.314282	667.287848	-106.770555	476.563010	699.820341	-128.873065	296.408801	540.654467	-109.188060	313.380584	542.550728	-196.135628	216.847061	529.971296	-143.765169	500.246286	426.494488	-149.754265	432.273849	424.190667	-90.857967	313.446290	1110.231272	-434.068384	345.978729	1029.697054	-432.202979	377.902994	1033.584416	-415.775877	334.664947	941.753366	-442.119310	319.917019	771.892686	-437.601964	331.160964	733.558992	-328.009114	259.357761	654.431073	-464.174455	235.492262	572.183005	-447.304879	173.793610	508.288578	-450.513773	259.702687	560.438872	-418.296388	95.427644	374.613007	-450.271240	94.457660	373.580392	-362.699000	25.206223	405.100644	-407.571458	226.867427	173.278678	-401.977631	154.253363	201.575598	-465.315005	-176.822024	938.996728	-277.632330	-3.082268	86.385031	-484.406328	-15.002655	80.601145	-83.995756	
504	2.5200	815.563503	1319.431907	-69.643173	791.134953	1340.288331	-384.343432	820.116779	1423.556443	-230.791163	759.027589	1271.532035	-236.089766	536.487961	1160.081988	48.367270	693.492112	949.250820	-59.003461	574.665964	1184.341140	-530.816597	695.121732	947.124429	-459.582602	214.719886	1340.850888	-267.436773	380.117926	1275.369107	-404.217804	345.606729	1337.132148	-91.987402	396.756135	1219.379766	-349.732105	375.400932	1267.366590	-124.282886	247.905600	1384.238284	-227.309435	260.306844	1369.885181	-303.236454	298.816019	1299.040104	-69.189237	301.820223	1196.330729	-421.733836	393.866792	1159.198263	-61.286124	460.171883	1103.401337	-76.674307	492.313889	1024.986277	-84.564175	484.591534	1124.882105	-96.288555	560.783881	896.594448	-117.054686	531.141346	882.595771	-227.962777	484.376630	795.668772	-90.836932	450.444293	711.508596	-103.970582	380.764713	661.463732	-107.091716	476.435371	695.829254	-129.134992	299.210046	533.120829	-109.369821	316.380300	535.067850	-196.522459	220.493646	521.128235	-144.342657	504.442052	420.689482	-149.814160	436.477784	417.851373	-90.952500	316.776446	1112.082832	-433.470963	349.739392	1031.696238	-431.391702	381.578939	1035.730286	-414.984936	339.070699	943.782761	-441.464991	323.717144	774.138394	-437.876438	334.243550	735.555058	-327.927870	262.486502	657.469418	-464.303250	237.050204	575.661604	-447.252155	174.197806	512.973976	-450.625218	260.850767	563.679550	-418.017216	92.734365	381.268663	-450.452917	91.619449	380.339182	-362.732415	22.703388	412.455657	-407.775869	222.262027	178.799892	-401.666171	149.985865	207.785956	-465.229709	-176.774799	938.986113	-277.655194	-3.093825	86.547711	-484.570940	-15.005210	80.605998	-84.031610	
505	2.5250	815.531204	1317.604834	-68.799494	790.862137	1340.034984	-383.338473	820.877678	1422.406331	-229.433258	759.357785	1270.835773	-236.383422	534.946194	1159.544404	47.782924	693.156102	949.506426	-59.598978	574.210558	1184.325704	-529.791721	695.126815	947.057895	-459.239441	215.187301	1342.415330	-266.526278	380.456216	1277.200826	-403.295368	346.157282	1337.062340	-90.773435	397.361233	1221.135715	-349.068954	375.916131	1267.503847	-123.583331	248.458139	1385.379789	-226.020827	260.854944	1371.336848	-301.855034	298.847823	1298.595126	-68.370688	304.190338	1198.441573	-422.138722	392.588687	1157.401778	-60.869030	458.426649	1100.964336	-76.732277	489.719281	1022.269426	-84.893533	483.084754	1122.409771	-95.749992	557.289320	893.762825	-117.675987	527.297339	879.553771	-228.578989	482.498060	791.441041	-91.412197	449.752368	706.790988	-104.272227	380.839390	655.570612	-107.006298	476.117182	691.586624	-129.363128	301.985730	525.357687	-109.623379	319.046055	527.358532	-196.737278	222.850857	512.891819	-143.808453	508.418134	414.655482	-149.895266	440.376394	411.136719	-91.132746	320.001173	1113.770303	-433.113718	353.235763	1033.457420	-430.765036	385.093810	1037.746379	-414.649526	343.234349	945.547606	-440.911338	327.678368	776.245397	-438.134420	337.843955	737.388679	-328.013261	265.766271	660.412839	-464.537411	238.590091	579.282770	-447.104315	174.463059	517.860051	-450.519565	262.063801	566.942540	-417.747183	90.218493	388.171585	-450.390536	88.770604	387.261915	-362.641792	20.308255	420.030834	-407.732201	218.231587	185.315804	-402.329419	145.977903	214.412284	-465.174645	-176.768757	938.974973	-277.797242	-3.081704	86.507413	-484.585534	-14.999714	80.603371	-84.058951	
